# xmcd
#
# Track frame offsets:
#	150
#	1432
#	24032
#	85328
#	109607
#	144557
#	148886
#	193040
#	235405
#	266275
#
# Disc length: 3562 seconds
# Revision: 0
# Processed by: cddbd v1.5.2PL0 Copyright (c) Steve Scherf et al.
# Submitted via: dBpowerAMP V12.0
#
DISCID=800de80a
DTITLE=Hale Dwoskin - The Inner Circle Retreat 03 CD 12
DYEAR=2007
DGENRE=Speech
TTITLE0=Intro Music
TTITLE1=Trying to Convince Yourself - You Cannot Catch Anothers Feelings
TTITLE2=Scary Religious Traditions - The Human Experience - Wanting to Hold Beingness
TTITLE3=How to Be Successful
TTITLE4=The Evolution of the Body-Mind-Mechanism
TTITLE5=Universal Memory
TTITLE6=Early Childhood Abuse - Being Not the Body - Feeling Guilty
TTITLE7=Release on Early Childhood Abuse
TTITLE8=If You Really Enjoy Being Angry
TTITLE9=Concluding Music
EXTD=
EXTT0=
EXTT1=
EXTT2=
EXTT3=
EXTT4=
EXTT5=
EXTT6=
EXTT7=
EXTT8=
EXTT9=
PLAYORDER=
